<svg width="24" height="24" viewBox="0 0 24 24" fill="none" xmlns="http://www.w3.org/2000/svg">
<g id="ic-action-search-24">
<path id="Union" fill-rule="evenodd" clip-rule="evenodd" d="M4.21508 11.1456C4.21508 7.3179 7.33722 4.21165 11.1926 4.21165C15.048 4.21165 18.1702 7.3179 18.1702 11.1456C18.1702 12.6931 17.6599 14.1226 16.7972 15.2767L15.3685 16.7013C14.2044 17.5668 12.759 18.0796 11.1926 18.0796C7.33722 18.0796 4.21508 14.9734 4.21508 11.1456ZM15.9421 17.7835C14.6021 18.7329 12.9627 19.2913 11.1926 19.2913C6.66977 19.2913 3 15.6461 3 11.1456C3 6.64512 6.66977 3 11.1926 3C15.7155 3 19.3852 6.64512 19.3852 11.1456C19.3852 12.9371 18.8037 14.5931 17.8184 15.9375L19.8361 17.4048C20.6705 17.912 21.7554 18.6543 20.2454 20.215C18.7353 21.7756 18.0099 20.6663 17.4991 19.8364L15.9421 17.7835Z" fill="#6A737D"/>
</g>
</svg>
